<svg width="96" height="95" viewBox="0 0 96 95" fill="none" xmlns="http://www.w3.org/2000/svg">
<g style="mix-blend-mode:plus-darker" filter="url(#filter0_d_91_3185)">
<path d="M26.892 70.157C26.2391 69.4831 26.1055 70.3199 25.6863 70.4569C24.7552 69.8015 25.6863 69.7349 25.6567 69.2165C25.0334 68.8462 24.2099 68.9165 23.8575 68.5315C23.9094 68.4241 23.8575 68.3241 24.0504 68.3093C23.1453 68.1686 22.4812 66.7764 21.3869 66.6505C21.3839 66.5827 21.3979 66.5152 21.4277 66.4542C21.2997 66.7433 21.1037 66.9973 20.8564 67.1948C20.5522 66.906 19.9995 66.9504 20.2035 66.5209C20.3779 66.7134 20.5189 66.5986 20.7043 66.5875L20.2555 66.4135C20.4298 65.6729 20.8379 66.6801 21.1755 66.3431C20.4335 65.884 19.3207 65.5544 18.9979 64.962C19.3429 64.4177 20.2369 65.8988 20.0106 64.8843L20.5597 65.7729C20.7118 64.5214 20.9306 66.258 21.194 65.0027C20.3742 63.9289 19.9068 64.1696 19.0907 63.0958C18.6307 63.1292 18.7939 63.5327 18.3487 63.5661C16.5607 62.67 18.4118 61.3926 16.8278 60.9964C16.2751 61.0371 15.6148 61.5036 15.2067 60.5002L15.9486 60.2373C15.0806 59.2709 14.6985 60.4373 14.0753 59.1265C14.4462 59.0969 14.9656 59.6782 14.8877 59.4968C14.6614 58.4785 14.1458 59.3412 13.6821 58.8636L14.0271 58.3193C13.4647 57.8545 12.8764 57.4218 12.265 57.0233C11.9534 56.8123 11.6381 56.5938 11.3265 56.3679C11.1707 56.2569 11.0149 56.1421 10.8628 56.0236L10.6365 55.8459L10.4547 55.6755C10.6402 55.6052 10.9221 55.6274 10.8665 55.2719C10.5269 55.0355 10.2308 54.7424 9.99101 54.4055C9.85491 54.2393 9.73093 54.0636 9.62005 53.8797C9.52854 53.6921 9.43951 53.4995 9.35296 53.3021C9.26361 53.1116 9.1964 52.9116 9.15264 52.7059C9.1007 52.5023 9.04135 52.306 9.00425 52.1061C8.96716 51.9061 8.95974 51.7025 8.93748 51.5062L8.9078 51.2174V50.9286C8.69017 50.7953 8.4676 50.6509 8.24008 50.4954C8.2104 50.3621 8.4441 50.2029 8.56281 50.3288C8.68523 49.7178 8.21782 50.3584 7.96927 50.1066C7.88024 49.7659 8.2104 49.6178 8.40701 49.8067C8.31909 49.6788 8.24215 49.5438 8.17701 49.4031C8.11395 49.2513 8.04718 49.0883 7.98782 48.9143C7.85676 48.5479 7.77566 48.1656 7.7467 47.7776C7.72259 47.5808 7.72259 47.3819 7.7467 47.1851C7.76193 46.9948 7.78918 46.8055 7.82831 46.6186C7.91896 46.2851 8.07954 45.9746 8.29943 45.7077L8.4033 45.9632C8.49097 45.8014 8.51981 45.6143 8.48491 45.4337C8.44036 45.2666 8.37689 45.1051 8.29572 44.9524C8.13621 44.6339 8.05831 44.3192 8.47378 44.0378L8.49233 44.2266C8.62958 44.0193 8.72603 43.786 8.86329 43.5824C9.00054 43.3787 9.13038 43.1565 9.25651 42.9381C9.38263 42.7196 9.54957 42.5308 9.69053 42.3234L9.9094 42.0198L10.1579 41.7458C10.3286 41.5644 10.4844 41.3755 10.6662 41.2237C10.8625 41.0429 11.068 40.8724 11.2819 40.7127C11.6735 40.4 12.1116 40.1501 12.5803 39.9722C12.2613 39.1835 14.4351 38.6244 13.7563 37.7505C15.0583 37.2173 14.9322 37.6172 16.4865 36.5805C16.8575 36.2694 16.5199 35.5807 16.8575 35.0734L17.3101 35.4733L17.4659 34.4699L18.2597 34.6439L18.5565 34.1404C18.3747 34.2774 18.0371 34.2996 17.9444 34.1404C18.3895 33.3295 19.7547 32.8925 19.9773 33.0851L21.1198 31.2596C21.2497 31.4559 21.0568 31.7595 20.964 32.0594C21.335 30.856 21.5353 32.3408 21.884 31.2411C21.6948 31.2411 21.6948 30.9449 21.628 30.8486C22.2364 30.7301 23.0599 29.9118 23.5682 29.2009L23.7314 29.5934C24.9036 28.5677 25.9163 27.1422 27.159 25.9166C26.5841 26.2276 26.2057 25.6463 26.521 25.2352L27.0923 25.5167C27.0626 25.0205 26.5544 25.7351 26.7213 24.9316C27.2332 24.5206 27.5189 25.1094 27.3928 25.513L27.8045 24.802C27.964 24.8983 27.901 25.0945 28.0271 25.2945C27.9937 24.7983 29.4256 24.7539 29.2995 23.9615L29.4553 24.0578C30.6943 22.8285 31.1098 22.1212 32.0928 21.0956C31.7441 20.7253 32.2189 20.3958 32.2227 19.7996C33.0796 19.1813 34.1887 18.6481 35.0494 17.7298C35.4908 16.9226 34.9195 17.2336 34.9826 16.7337C35.3536 17.0226 36.2216 16.1043 36.0027 16.8078C36.8946 15.8705 37.6911 14.8473 38.3806 13.753C38.0987 13.753 37.8724 13.8678 37.8427 13.6679C38.0319 13.3679 38.5438 13.2495 38.6699 13.4457L38.6403 13.5457C38.9156 13.0397 39.304 12.6038 39.7754 12.2719C40.0128 12.0905 40.2688 11.9239 40.5173 11.761C40.7659 11.598 41.0033 11.5277 41.2592 11.4166L41.6005 11.2611L41.9455 11.1352C42.1556 11.0524 42.3612 10.9584 42.5613 10.8538C42.7507 10.7735 42.926 10.6635 43.0807 10.5279C43.1543 10.4606 43.2225 10.3875 43.2847 10.3095C43.3532 10.2337 43.4129 10.1505 43.4627 10.0614L43.4145 10.1392L43.9673 9.59485L44.5868 9.10979C45.2545 8.95798 44.3122 9.58374 44.8724 9.69482C45.143 9.43736 45.4655 9.24045 45.8183 9.11719C46.1203 9.0478 46.4286 9.00934 46.7383 9.00241C47.0295 9.02632 47.3218 9.03374 47.6138 9.02463C47.9299 9.03073 48.2448 8.98315 48.5449 8.88392C48.7482 9.22141 49.0671 9.47396 49.4426 9.59485C49.6325 9.66729 49.8271 9.72668 50.025 9.77258C50.2328 9.81701 50.4516 9.84664 50.6668 9.90958C51.546 10.0651 52.4697 10.4465 52.7739 11.1426L52.8888 10.8316C53.3525 10.7501 53.1151 11.2278 53.2598 11.424C53.3896 11.2018 53.1411 10.9686 53.4193 10.9501C53.5788 11.0389 53.7421 11.1315 53.9016 11.2278C54.0611 11.324 54.1946 11.461 54.3393 11.598L54.5545 11.7795C54.6338 11.8455 54.7093 11.916 54.7807 11.9905C54.944 12.1534 55.1035 12.3201 55.2593 12.4867C55.8899 13.1606 56.4909 13.8789 57.0807 14.6121C58.2566 16.0932 59.3807 17.615 60.5789 19.022C61.4729 20.0403 62.3298 18.3592 62.9753 20.1329L62.2 20.2217C64.6483 21.6288 66.1247 24.1763 68.4543 25.6203C68.2392 25.6203 68.1056 25.7314 67.9239 25.5463C68.0092 26.2609 69.3817 27.0274 69.6488 26.783C69.9122 27.1051 69.4819 27.0829 69.5338 27.3939C69.749 27.979 70.9398 27.9975 70.8396 28.5048C70.8396 28.5936 70.6245 28.5048 70.528 28.4455C70.9398 28.5529 71.7002 29.6971 71.8152 29.0861C72.3494 29.9674 73.3325 30.2784 73.67 31.056C74.4453 31.0189 74.6865 32.4593 75.3802 32.0039C74.7347 32.5445 76.1406 33.7219 76.864 33.8886C76.5376 33.9182 77.068 34.4662 76.6451 34.5365C77.1645 35.0401 77.758 35.3956 77.9583 35.0031C78.192 36.6508 80.4215 36.3213 80.0431 37.7579C80.9631 38.3578 81.8275 38.9539 82.6399 39.5538C83.0516 39.8537 83.4523 40.1536 83.8455 40.4572L84.4279 40.909C84.6171 41.0608 84.8211 41.22 84.9658 41.3533C84.9027 41.4094 84.8234 41.4439 84.7394 41.4519C84.6553 41.4599 84.5709 41.4409 84.4984 41.3977C84.2919 41.27 84.1003 41.1197 83.9271 40.9497C83.5561 40.6053 83.1852 40.2758 82.8921 40.6165C83.2516 40.8571 83.6231 41.0796 84.005 41.283L84.5169 41.5607L84.9361 41.7902C85.2255 41.9374 85.4877 42.1328 85.7114 42.3679C85.9712 42.6172 86.1748 42.9188 86.3087 43.2528C86.4162 43.6564 85.8821 43.2528 85.7003 43.2121C85.8319 43.3495 85.9557 43.4942 86.0712 43.6453C86.1895 43.7878 86.2916 43.9431 86.3754 44.1081C86.5502 44.4255 86.6967 44.7575 86.8132 45.1005C86.9282 45.4374 87.0543 45.767 87.1507 46.1002C87.2057 46.2667 87.2701 46.4298 87.3436 46.589C87.4043 46.7566 87.4736 46.921 87.5514 47.0814C87.4735 47.0814 87.3696 46.9556 87.288 46.8297C87.3511 47.0926 87.2546 47.4554 87.6256 47.3851L87.4846 47.1333C87.7294 46.8815 88.0522 47.1 88.3564 47.4295C88.6605 47.7591 88.8757 48.1701 89.0278 48.2145C88.4639 47.9738 88.4343 48.3552 88.3193 48.6773C88.2043 48.9995 88.0448 49.2698 87.3733 48.8736C87.4054 48.979 87.47 49.0715 87.5579 49.138C87.6459 49.2045 87.7527 49.2416 87.863 49.2439C87.7777 49.5142 87.6256 49.5771 87.3473 49.2883C87.3697 49.5824 87.4681 49.8656 87.633 50.1103C87.7089 50.2215 87.7559 50.3498 87.7695 50.4837C87.7831 50.6175 87.7629 50.7526 87.7109 50.8768C87.5291 50.8323 87.5031 50.6398 87.314 50.5065C87.4514 50.7578 87.549 51.0288 87.6033 51.31C87.6497 51.6416 87.5732 51.9786 87.3881 52.2579C87.2991 52.1764 87.1322 52.2098 87.2101 51.995C87.167 52.1485 87.1324 52.3043 87.1062 52.4615C87.0661 52.6113 87.0351 52.7634 87.0135 52.917C86.9843 53.226 86.9347 53.5327 86.8651 53.8353C86.7582 54.5069 86.4036 55.1145 85.8709 55.5385C85.5519 54.7017 85.3256 55.7459 84.758 55.3275C84.695 55.446 84.6505 55.557 84.5726 55.6977L84.3314 56.0865H84.8211C84.261 56.6271 84.1274 57.4714 83.4931 57.7861L83.7008 57.1751L82.7586 58.286L83.5302 57.8861C83.226 58.697 84.2127 58.4452 83.341 59.0413C83.4374 58.8451 82.7808 59.5893 82.2058 59.5893C82.1725 59.827 82.0867 60.0543 81.9545 60.2547C81.8223 60.4552 81.6472 60.6238 81.4417 60.7483C81.1783 60.6964 80.9854 60.1225 80.811 60.0855C80.952 60.7631 79.6314 61.4925 79.7241 62.2664C79.7148 62.1633 79.6797 62.0642 79.622 61.9781C79.5643 61.8921 79.4859 61.8219 79.394 61.7739L79.5015 62.3331C79.1306 62.4812 79.049 62.4664 78.8857 62.222C78.0585 62.9292 79.7538 62.5923 78.5704 63.2402C78.6149 63.144 78.5333 63.1291 78.6298 62.9292C77.5725 63.7068 77.068 64.9102 76.0627 65.5878C75.3208 65.3434 76.6785 64.7324 75.9774 64.5991C74.8645 65.9025 74.0521 67.702 72.7612 68.761L73.032 68.5981C73.5662 69.4534 71.8115 69.1276 71.5481 70.0496C71.6446 69.8533 71.3552 69.472 71.3923 69.5904C70.4761 70.2829 69.9085 71.4048 68.9143 72.8415L68.8884 72.5119C68.254 72.8266 67.5455 73.6672 66.952 74.1004C66.9779 74.4299 66.6552 74.6928 67.0929 74.7743C64.4962 75.3371 64.6223 78.3289 62.3706 78.8843C62.5375 78.714 62.6154 78.3289 62.4819 78.4622L61.4506 79.8174C61.8475 80.0285 61.7919 79.847 62.2779 79.8174C62.2742 80.2346 62.1063 80.6336 61.8104 80.9282C62.148 80.1877 61.3208 80.4469 60.9201 80.5098C61.05 80.5654 61.0722 80.7468 61.1872 80.8209C60.0224 80.906 61.6917 81.5318 60.4787 82.0206L60.3637 81.8169C60.1263 82.2168 60.041 82.7204 59.6515 83.0203C59.1581 82.813 59.8295 82.5167 59.5624 82.2057C59.0987 82.7093 59.2731 83.8201 58.4866 83.909C58.5942 83.6053 58.8873 83.3091 58.9949 83.0092C58.1083 83.0721 58.1565 83.2314 57.7373 83.5202L57.7818 83.4943L56.7765 84.1274L57.0955 84.0275C57.4034 85.5382 56.042 85.4419 55.8083 86.8193C56.0531 85.4937 55.6117 86.375 55.2853 85.9084C54.9774 85.9788 54.573 86.1084 54.5433 85.9084C54.5174 86.2343 54.317 86.3157 54.0908 86.3861C53.9472 86.4318 53.8209 86.52 53.7288 86.6391C53.6367 86.7581 53.5831 86.9024 53.5751 87.0526C53.4527 86.923 53.1226 87.3007 52.9816 86.8601C52.5327 87.2896 53.2635 87.0563 53.3525 87.2711C53.2197 87.517 53.0043 87.7084 52.7442 87.8117C52.4499 87.8997 52.15 87.9678 51.8464 88.0153C51.5222 88.0458 51.2016 88.1079 50.8894 88.2004C50.5449 88.3053 50.2299 88.4892 49.9694 88.7373C48.838 89.2928 48.6376 89.9296 47.3727 90.2184C47.1649 90.0629 47.2614 89.9037 47.4023 89.7815C47.4992 89.6998 47.6065 89.6314 47.7214 89.5779C47.4491 89.4409 47.1506 89.3639 46.8459 89.352C46.555 89.3445 46.2642 89.3668 45.9779 89.4186C46.1262 89.2816 46.015 89.1298 45.874 88.904C45.7842 88.9086 45.6963 88.9317 45.6159 88.9719C45.5355 89.012 45.4642 89.0683 45.4066 89.1372C45.2842 89.2335 45.1432 89.289 44.8613 89.0854C45.0396 88.8569 45.2509 88.656 45.4882 88.4893C45.1942 88.5162 44.9019 88.5594 44.6127 88.6189C44.3086 88.6529 44.0022 88.6628 43.6965 88.6485C43.6668 88.3078 44.1973 88.3189 44.4384 88.1856C43.7929 88.1486 42.8321 87.8339 42.4055 88.1856C42.502 88.3115 42.6095 88.4152 42.7134 88.5337C42.4797 88.4485 42.795 88.0968 42.9879 88.0857C43.3255 88.0264 43.4813 88.1486 43.5592 88.3115C43.6263 88.4481 43.6496 88.6019 43.626 88.7522C43.4776 88.7448 43.3301 88.7263 43.1845 88.6966C43.1845 89.2928 43.6334 89.3927 44.1527 89.4001C44.4237 89.3922 44.6939 89.3663 44.9614 89.3224C45.1996 89.2907 45.4412 89.2969 45.6774 89.3409C45.5104 89.5853 45.3435 89.8 45.1655 90.0222C45.5119 89.8838 45.85 89.7255 46.1782 89.5482C46.334 89.7704 46.4267 90.2184 45.9593 90.2703C46.2635 90.5036 46.423 90.4591 46.5603 90.4147C46.6975 90.3703 46.8274 90.3073 47.1019 90.5295C47.1612 90.5998 47.1315 90.6369 47.0685 90.6628L47.7288 90.4628C47.6027 90.622 47.8401 91.0145 47.4283 90.8849C47.6881 90.9947 47.9741 91.0268 48.2518 90.9775C48.4759 90.9409 48.6949 90.8788 48.9047 90.7924C49.2757 90.6146 49.5465 90.4628 49.821 90.7183L49.7283 90.7813C49.9876 90.7315 50.2286 90.6125 50.4257 90.4369C50.4613 90.402 50.4854 90.357 50.4946 90.308C50.5039 90.259 50.498 90.2084 50.4776 90.1629C50.4183 89.9815 50.3218 89.7556 50.7929 89.3002C51.1647 89.6872 51.5626 90.0485 51.9837 90.3814L51.9466 89.7963C52.1135 89.7593 52.4437 89.6889 52.4697 89.9185C52.8963 89.2965 52.2805 89.7371 52.4697 89.2483C52.9602 89.2561 53.4376 89.0894 53.8162 88.7781C54.2206 88.53 54.5582 88.356 54.8995 88.6596C54.8995 88.1375 54.0908 88.8373 54.6138 88.0894C54.9848 88.4152 55.174 88.2264 55.3557 87.9598C55.4522 87.8302 55.5375 87.6673 55.6451 87.5228C55.76 87.3711 55.926 87.2659 56.1125 87.2266C56.2868 87.745 55.5635 88.0412 56.4315 87.8598C56.2238 86.9304 57.6038 86.9971 57.9154 86.449C57.4591 85.9566 58.6573 85.3382 59.2026 84.4533C59.3139 84.6569 60.8089 83.3684 61.6509 82.8759L61.7103 82.9759C61.3393 82.3649 62.1369 81.7688 62.5375 81.1726C62.661 81.2851 62.7429 81.4358 62.7698 81.6005C62.7967 81.7651 62.7672 81.934 62.6859 82.0798L63.1533 81.6096C63.1374 81.4564 63.1536 81.3015 63.2009 81.1549C63.2481 81.0083 63.3254 80.8731 63.4278 80.7579L63.669 81.2356C64.2736 80.5913 64.5036 79.5545 65.5497 78.988C65.2604 78.6177 63.9768 78.6955 64.6038 77.6217C64.8152 77.7698 65.1602 78.0475 65.0081 78.3622C65.0601 78.2623 65.1194 77.9512 65.3457 77.8809L65.3086 78.5252C65.8094 78.2919 65.2455 78.0771 65.5683 77.8142C65.8205 78.0771 65.9689 77.7809 66.1321 78.029C66.0839 78.129 65.7612 78.1771 65.7612 78.3993C66.1128 78.1017 66.5578 77.9366 67.0187 77.9327C66.9634 77.9061 66.9148 77.8674 66.8765 77.8194C66.8383 77.7714 66.8114 77.7155 66.7978 77.6557C66.7843 77.5959 66.7844 77.5338 66.7983 77.474C66.8121 77.4143 66.8393 77.3585 66.8778 77.3107C67.4861 76.6664 67.4045 77.4069 67.9016 77.1737C67.8756 76.8441 68.4618 76.6331 68.0834 76.2332C68.2689 76.0517 68.484 76.1998 68.6584 76.2332C68.8105 75.7407 70.1237 74.6743 69.3484 74.6262L69.2371 74.6854C69.248 74.6612 69.2604 74.6377 69.2742 74.6151C69.9493 73.171 71.6965 72.6304 72.5868 71.4122L72.713 71.5455C73.1952 70.7679 74.0262 70.0644 74.1968 69.3238C74.386 69.1387 74.872 69.1239 74.9387 69.3572C75.3097 68.7795 75.2281 68.5796 76.1369 68.0982C75.881 68.8092 76.5079 68.1316 75.8068 68.761C76.5487 68.2463 76.8937 68.313 77.209 67.2799C77.3129 67.839 78.0993 67.2281 78.2959 66.8319L77.6208 67.0318C77.8962 66.694 78.2127 66.3918 78.563 66.1321L78.8412 66.7245C80.6478 65.984 80.2435 63.5216 82.1057 63.4365C82.1391 62.7959 81.1968 63.9178 81.1412 63.2587C81.7867 62.7293 83.0257 62.7441 83.2111 62.5589C84.261 61.9961 83.3261 61.1741 84.324 60.4965C84.0606 60.4484 83.545 60.1262 84.0273 59.3598C84.6727 58.8303 85.4035 59.2894 85.1401 59.7856C85.0103 59.9411 84.8916 59.9596 84.8471 59.9004C84.7135 60.1447 84.528 60.4632 84.9324 60.3965L84.8508 60.167C85.3034 60.0337 86.0972 59.2079 86.1603 59.6523C86.457 59.0598 86.0972 59.2079 85.6854 59.456C86.0907 59.2333 86.4546 58.9427 86.7612 58.597L87.2249 58.1156C87.4219 57.9066 87.6339 57.7123 87.8593 57.5343C87.633 57.6084 87.3214 57.5676 87.4512 57.4232C87.5981 57.3081 87.738 57.1844 87.8704 57.0529C87.9489 56.9654 88.0162 56.8683 88.0707 56.7641C88.1057 56.7099 88.1291 56.6489 88.1393 56.5852C88.1495 56.5215 88.1464 56.4563 88.1301 56.3939C88.0781 56.205 87.9631 56.0532 88.2562 55.5422C88.8831 55.1386 88.8089 56.1828 89.191 54.9794C89.7549 54.424 89.7994 55.109 89.7883 55.4756C89.815 55.328 89.8548 55.183 89.907 55.0424C89.9499 54.9153 90.002 54.7916 90.0628 54.6721C90.1842 54.4374 90.3323 54.2175 90.5042 54.0167C90.7952 53.6838 91.0559 53.3257 91.2832 52.9466L91.2387 53.6131C91.2765 53.2706 91.355 52.9337 91.4724 52.6096C91.3055 52.6911 91.1015 52.7578 90.9419 52.8281C91.146 52.506 91.1942 52.1949 91.3797 52.2505C91.1868 51.8173 90.6044 52.3282 90.3929 51.5433C90.4727 51.433 90.5272 51.3066 90.5524 51.173C90.5821 51.0175 90.5821 50.8508 90.6007 50.6953C90.6303 50.3843 90.6971 50.1177 91.0013 50.0696C90.7973 50.7879 90.9457 50.7657 91.1386 50.7287C91.3315 50.6916 91.5652 50.6139 91.5095 51.273C91.486 50.9586 91.5355 50.6431 91.6542 50.351C91.7284 50.3028 91.7692 50.4176 91.7877 50.525C92.1587 49.8104 91.9732 49.6067 91.7618 49.4142C91.6296 49.3124 91.5176 49.1868 91.4316 49.0439C91.3214 48.8036 91.2669 48.5416 91.2721 48.2774C91.6097 48.4663 91.8805 47.9072 91.7989 47.6554C91.8211 48.2811 91.2647 47.9627 90.9865 47.448C91.1423 46.4816 90.6637 46.4594 90.6155 45.9669L90.5784 46.5334C90.494 46.4933 90.4196 46.435 90.3606 46.3626C90.3016 46.2902 90.2594 46.2057 90.2371 46.115C90.1555 45.9151 90.0702 45.6596 89.9478 45.3745C90.1815 45.2597 90.2557 45.8892 90.3187 45.6448C90.2386 45.5854 90.1718 45.5099 90.1226 45.4231C90.0734 45.3364 90.0429 45.2404 90.0331 45.1412C90.0238 45.0365 90.0238 44.9312 90.0331 44.8265C90.0331 44.7179 90.0331 44.6068 90.0331 44.4932C90.0331 44.0341 90.0999 43.4861 89.6918 43.1158C89.6918 42.6011 90.2371 42.8233 90.1963 42.3753C89.8778 42.0855 89.6738 41.6914 89.6213 41.2644C89.5934 41.079 89.5436 40.8976 89.4729 40.7238C89.3526 40.4944 89.1798 40.2965 88.9684 40.1462C88.8275 40.6979 88.9351 40.6646 88.093 40.2462L88.8015 40.9497C89.0278 41.1904 89.2318 41.457 89.447 41.7162C89.0611 41.4501 88.657 41.2113 88.2377 41.0015C88.412 41.2274 88.6086 41.4496 88.8163 41.6606C88.9918 41.8212 89.1352 42.0134 89.2392 42.2271C88.6234 41.8902 88.757 41.9013 88.5715 42.3123C88.6036 42.107 88.5713 41.8968 88.479 41.7105C88.3867 41.5242 88.2389 41.371 88.0559 41.2718C87.6789 41.0626 87.3952 40.7186 87.262 40.3091L88.1227 39.6278C87.9813 39.3038 87.7742 39.0125 87.5143 38.7725C87.4019 38.6636 87.2775 38.568 87.1433 38.4874C87.0172 38.4096 86.8874 38.3356 86.7501 38.2578C86.1212 37.9627 85.5719 37.5222 85.1476 36.973L85.3775 37.4728C84.9176 37.6283 84.6356 36.8137 84.1422 36.5694C84.4353 36.3472 84.2981 36.0213 84.3018 35.7066C84.1274 35.9177 83.4857 34.855 82.8661 35.2697L82.6992 34.4218C81.9202 33.3665 80.9149 34.1107 80.1025 33.1443C80.6515 33.1443 80.4326 32.5445 81.2154 32.9333C80.9223 32.637 80.7034 32.326 80.5217 32.5C80.5217 32.1668 79.3532 32.0298 79.3309 31.5151C79.0898 31.5151 78.7782 31.7336 78.4703 31.3818C78.4703 31.2929 78.6001 31.2559 78.6001 31.2559C78.4703 31.3818 77.9064 30.9116 77.9101 31.4892C77.81 29.7748 75.3134 29.012 75.2169 27.531C74.475 26.9755 73.6255 26.2831 73.0246 25.7203C73.1396 25.6796 73.1544 25.5944 73.2397 25.7203C72.6722 24.6761 72.0007 25.9684 71.3515 24.7835C71.3033 23.8986 72.0638 25.0427 71.9302 24.5947C72.7167 23.6246 70.7728 23.6246 70.6467 22.5137L70.847 22.6137C70.6653 21.8732 69.3632 21.788 68.6658 20.9586C68.6658 20.9586 68.7771 20.9215 68.7993 20.8327C67.8348 20.7401 66.696 19.8885 65.8316 19.2701C66.3955 19.1664 66.3473 19.4293 66.5439 18.9517C66.1729 18.6666 66.0987 19.5923 65.3383 19.0257C65.3049 18.6258 64.9859 17.989 65.2863 17.5669L65.9504 18.163C66.095 17.378 65.1231 17.3706 64.8746 16.9596L65.1194 16.8004C64.0956 15.908 63.5688 16.4079 62.5746 15.3452L62.5264 15.6044C61.4506 15.5526 62.3409 14.8453 61.4135 14.6639L61.7622 13.9789C60.8702 13.5935 60.0116 13.1353 59.1952 12.6089C59.9556 12.6089 60.935 13.1865 61.6435 13.442C61.2726 13.0717 60.3526 12.2275 59.9074 12.2942C60.104 12.3904 60.4193 12.4497 60.4861 12.6644C59.5707 12.594 58.7183 12.1719 58.1083 11.487C59.2211 10.6057 56.5428 9.36528 56.4723 7.92121C55.5085 7.43444 54.5734 6.89295 53.6716 6.29941C53.4342 6.1587 53.1967 6.00689 52.9297 5.86989L52.1395 5.49961L51.7315 5.32558L51.2974 5.19228C51.0044 5.11082 50.7039 5.03307 50.3923 4.97382C50.7187 5.6144 50.5295 5.57737 50.2736 5.53294C50.0176 5.4885 49.6281 5.4811 49.6281 6.05502C49.0828 6.05502 48.8862 6.00319 48.8417 5.93283C48.3037 5.65848 47.7472 5.42216 47.1761 5.22561C46.7495 4.91828 47.7177 4.95161 47.6657 4.70352C46.3674 4.6776 47.1056 4.23698 46.1819 4C46.397 4.37027 45.8109 4.63687 45.0208 4.59614C45.3917 4.71463 45.7627 4.83682 46.1337 4.96642C45.8324 5.13911 45.4906 5.22858 45.1432 5.22561C44.9073 5.215 44.6744 5.16752 44.4532 5.0849C44.2247 4.99849 43.9816 4.957 43.7373 4.96271C43.377 5.01135 43.0391 5.16457 42.7653 5.40334L43.2105 4.87015C42.9214 5.02897 42.6229 5.16994 42.3165 5.29226C41.9455 5.45888 41.5746 5.66253 41.2036 5.89581C40.8338 6.11871 40.4957 6.39021 40.1983 6.703C39.9386 6.95129 39.7646 7.2754 39.7012 7.62869C39.4972 7.62869 39.1336 7.49909 39.4193 7.18806C39.1762 7.34482 38.9433 7.51673 38.7219 7.70275C38.5053 7.91037 38.2998 8.12913 38.1061 8.35813C37.7523 8.77176 37.4299 9.21113 37.1416 9.67261C36.5703 10.5094 35.999 11.2722 35.2868 11.5906L35.1903 11.2944C34.9974 11.6017 35.1273 12.0942 34.6191 12.209C34.5523 12.1127 34.5226 11.9128 34.3965 12.0164C34.3334 12.2164 34.0775 13.0199 33.636 13.2346L33.6768 12.7311C32.1225 13.7752 32.2189 15.2601 31.2656 16.482C30.6906 15.9043 29.4775 16.7374 28.8766 17.1522L28.8098 17.0559C27.2258 18.4925 26.7176 20.0995 25.5417 21.725C24.0578 21.9657 22.3329 24.4021 20.5819 25.45C20.9009 25.3389 20.9974 25.9314 20.8082 26.2387C20.3631 26.4497 20.3 27.5421 19.8252 26.9792L19.9513 26.8719C19.1834 26.6016 18.6492 27.4125 18.0965 27.9234L18.7012 28.701C16.3418 29.0565 15.4998 32.6593 13.8342 32.5111C13.6746 33.0147 13.2629 33.4257 13.0922 33.9256L12.7213 33.5553C11.7746 34.2773 10.9123 35.1033 10.1505 36.0176L10.1171 35.5215C9.44941 36.1398 10.3768 37.3988 9.80553 38.0134L9.06361 37.6432C8.77928 37.9219 8.47692 38.1816 8.15846 38.4207L7.91734 38.6059L7.7096 38.8058C7.53154 38.9613 7.33864 39.1168 7.17913 39.2798C6.46152 39.9179 5.97728 40.7765 5.80287 41.7199C5.72323 41.6619 5.66708 41.5773 5.64462 41.4815C5.62215 41.3857 5.63487 41.285 5.68045 41.1978C5.56545 41.3903 5.354 41.6495 5.16111 41.9569C4.96472 42.2756 4.78758 42.6057 4.63063 42.9455C4.35983 43.6157 4.33386 44.197 4.8903 44.2081C4.55273 44.1081 4.36354 44.5784 4.34128 45.1782C4.31882 45.8001 4.37616 46.4223 4.51193 47.0296L4 46.8186C4.25967 47.2777 4.47483 47.4999 4.60837 47.7591C4.68388 47.8967 4.74123 48.0436 4.77902 48.196C4.82353 48.3663 4.85321 48.5663 4.91998 48.8477C4.86434 49.1106 4.51563 49.092 4.63434 48.7366C4.58282 48.8716 4.56906 49.018 4.59455 49.1602C4.62003 49.3024 4.6838 49.435 4.77902 49.5438C4.87902 49.6738 4.94996 49.8237 4.98707 49.9834C5.02418 50.143 5.02661 50.3088 4.99417 50.4695L4.62321 50.0992C4.72337 51.0101 4.86434 50.9249 5.36513 51.3174C5.53224 51.6391 5.60914 51.9998 5.58771 52.3616C5.60823 52.5221 5.59473 52.6852 5.54808 52.8402C5.50143 52.9952 5.42267 53.1387 5.31691 53.2613C5.51698 53.2875 5.70512 53.3712 5.85851 53.502C6.05456 53.6562 6.1856 53.8782 6.22576 54.1241C6.09593 54.2648 5.91786 54.1241 5.82512 54.0685C5.96206 54.6815 6.30182 55.2307 6.78962 55.6274C7.16058 55.9977 7.53154 56.2494 7.6317 56.8308C7.58554 56.8713 7.55019 56.9226 7.52882 56.9801C7.50746 57.0376 7.50074 57.0996 7.50928 57.1603C7.13832 56.6753 6.81188 56.2161 6.60414 55.8903C6.3964 55.5644 6.3185 55.346 6.3556 55.3756C5.94012 55.6052 6.41124 56.5605 5.42078 56.1865C5.79174 56.479 6.37044 56.7752 6.88236 57.1122C7.1309 57.2862 7.398 57.4417 7.62428 57.6195C7.83764 57.7821 8.01879 57.983 8.15846 58.2119C8.16379 58.2815 8.15234 58.3513 8.12508 58.4156C8.08968 58.4086 8.05493 58.3987 8.02121 58.3859C8.12329 58.5465 8.28006 58.6649 8.46265 58.7192C8.56725 58.9381 8.70211 59.1412 8.86329 59.3227C8.65555 59.6708 9.42715 60.1855 9.72392 60.5076C10.0652 60.1114 10.4139 60.578 10.336 59.893C10.3583 59.9707 10.2321 59.8929 10.0133 59.6893C9.96222 59.6488 9.90447 59.6174 9.84262 59.5967C9.85972 59.5929 9.87746 59.5929 9.89456 59.5967C9.68311 59.4042 9.4086 59.145 9.1007 58.8562C9.53102 58.9154 9.94649 59.0154 10.0837 59.5597C10.4807 59.4819 10.8999 59.4153 11.1113 59.3968C11.0223 60.3336 11.5602 61.4296 11.3599 61.8591C12.5135 62.5997 13.7229 63.9475 15.0138 63.8512C15.3848 64.0289 15.1251 64.3585 15.114 64.5658C14.8914 64.4807 14.717 64.2844 14.5316 64.3029C15.2475 64.6732 16.1972 65.8247 16.8093 65.4693C17.2692 66.3653 15.982 65.5322 16.991 66.3839L16.7202 66.4061C17.7775 68.998 20.9343 68.1501 21.973 71.1678C21.8951 70.9679 21.8506 70.8679 21.9025 70.7605C23.7833 73.5079 27.096 75.1149 28.6837 78.092C29.1919 78.8806 29.5703 78.64 30.2046 78.8029L29.9672 79.3213L31.1024 79.5397C32.397 80.1655 31.7961 82.1724 33.6434 82.7574L33.7547 82.3316C34.1257 82.8204 35.2979 83.5572 34.9195 83.7942C35.0123 83.7942 35.3387 83.6572 35.3721 83.9682L35.1755 84.1867L36.6074 84.905C37.29 85.8862 35.654 85.5974 36.8263 86.8489C37.3605 87.2192 38.7182 87.5302 38.6811 87.2192C38.5104 87.0267 38.3472 86.6268 38.5401 86.4046L39.0595 86.7119C39.7457 86.175 40.688 85.8677 40.1019 84.431L39.0224 84.0978L39.0891 83.5757L39.7049 84.1496C39.6456 83.535 39.1856 83.5683 38.7775 83.498C38.8274 83.4026 38.8559 83.2976 38.8611 83.1902C38.8662 83.0828 38.8478 82.9755 38.8072 82.8759L37.5311 82.7648C37.6832 82.4427 38.3138 82.6019 37.98 82.0243C37.3864 81.9576 37.7574 82.8685 37.0414 82.4982C36.9821 81.8836 37.3048 81.7577 36.6705 81.5947C36.7743 81.3837 36.9561 81.3689 37.1824 81.454C36.6408 81.2911 36.1697 80.6024 35.6615 80.7431C35.6615 80.0507 34.3816 79.6323 34.9937 79.0991C34.4841 79.0819 33.99 78.9201 33.5692 78.6325C34.8528 78.5326 32.397 77.381 33.2947 76.7812C32.2338 76.9626 31.4399 75.4741 30.327 75.0446C30.4198 75.0446 30.6053 75.0224 30.6424 75.1223C30.2714 74.6336 30.3159 74.3226 30.1527 73.9227C29.5814 74.3818 28.7839 73.819 28.1013 73.7671C28.0605 72.7378 29.0287 73.4894 29.3366 72.8489C28.9471 73.2895 27.99 72.3342 27.8231 72.8489C27.7229 72.1342 27.619 72.349 27.8231 71.7121C27.1108 72.2823 27.3334 71.4418 26.5989 71.4937C26.3207 70.5865 27.0478 70.7531 26.202 70.2866C26.0833 69.8052 26.892 70.157 26.892 70.157ZM10.3063 55.8088C10.425 55.9236 10.5289 56.0236 10.6142 56.0939L10.4807 55.9792L10.3063 55.8088ZM9.27134 54.5573C9.3715 54.7276 9.51618 54.9276 9.67198 55.1386C9.56811 55.2978 9.38634 55.3645 9.30102 55.2201C9.44941 55.2201 9.29731 54.8387 9.27876 54.5573H9.27134ZM9.16377 59.8004C8.9078 59.6486 8.91151 59.5079 8.95974 59.4042C9.0884 59.5167 9.2234 59.6218 9.36409 59.7189C9.38687 59.7132 9.40919 59.7058 9.43086 59.6967C9.3526 59.7492 9.2641 59.7845 9.17119 59.8004H9.16377Z" fill="url(#paint0_linear_91_3185)"/>
</g>
<defs>
<filter id="filter0_d_91_3185" x="0" y="0" width="96" height="95" filterUnits="userSpaceOnUse" color-interpolation-filters="sRGB">
<feFlood flood-opacity="0" result="BackgroundImageFix"/>
<feColorMatrix in="SourceAlpha" type="matrix" values="0 0 0 0 0 0 0 0 0 0 0 0 0 0 0 0 0 0 127 0" result="hardAlpha"/>
<feOffset/>
<feGaussianBlur stdDeviation="2"/>
<feComposite in2="hardAlpha" operator="out"/>
<feColorMatrix type="matrix" values="0 0 0 0 1 0 0 0 0 0 0 0 0 0 0 0 0 0 0.25 0"/>
<feBlend mode="normal" in2="BackgroundImageFix" result="effect1_dropShadow_91_3185"/>
<feBlend mode="normal" in="SourceGraphic" in2="effect1_dropShadow_91_3185" result="shape"/>
</filter>
<linearGradient id="paint0_linear_91_3185" x1="92" y1="47" x2="4" y2="47" gradientUnits="userSpaceOnUse">
<stop stop-color="#C01919"/>
<stop offset="1" stop-color="#EB8A00"/>
</linearGradient>
</defs>
</svg>
