<svg xmlns="http://www.w3.org/2000/svg" width="125" height="32" fill="none"><path fill="#FDFDFD" fill-rule="evenodd" d="M26.46 7.07 14.537.175a1.297 1.297 0 0 0-1.301 0L1.31 7.07l-.59.342a1.322 1.322 0 0 0-.064.035l-.005.003A1.308 1.308 0 0 0 0 8.58v14.545c0 .465.249.895.65 1.129l11.927 6.897.617.355.039.023a1.3 1.3 0 0 0 1.303-.002l.653-.378 6.287-3.635 4.113 2.378a1.735 1.735 0 0 0 1.74 0l4.548-2.63c.537-.312.87-.887.87-1.509v-5.259c0-.623-.33-1.199-.87-1.509l-4.111-2.377v-8.05a1.308 1.308 0 0 0-.651-1.11l-.654-.378Zm-1.306 9.537v-5.76a9.983 9.983 0 0 0-4.98 8.64v-5.763l-4.985 2.882v11.523l4.983-2.88v-4.755c0-.622.332-1.197.87-1.509l4.112-2.378Zm0-5.763v.003l-.01.003.01-.006Zm40.643 14.59a.534.534 0 0 1-.392-.16.533.533 0 0 1-.162-.392v-8.96h-1.867a.534.534 0 0 1-.392-.161.533.533 0 0 1-.161-.392v-1.358c0-.154.054-.285.161-.392a.534.534 0 0 1 .392-.161h1.867v-.922c0-1.397.377-2.433 1.13-3.109.753-.691 1.89-1.037 3.412-1.037h1.59c.154 0 .285.054.392.162a.533.533 0 0 1 .162.391v1.36a.533.533 0 0 1-.162.39.534.534 0 0 1-.392.162H69.9c-.6 0-1.022.146-1.268.438-.246.291-.369.744-.369 1.359v.806h2.882c.154 0 .284.053.392.16a.533.533 0 0 1 .161.393v1.358a.533.533 0 0 1-.161.392.534.534 0 0 1-.392.161h-2.882v8.96a.533.533 0 0 1-.161.391.488.488 0 0 1-.392.162h-1.913Zm-13.61-.23a5.08 5.08 0 0 0 2.167.461c.922 0 1.69-.154 2.305-.46.615-.323 1.091-.73 1.43-1.221v.898c0 .153.053.284.16.391a.534.534 0 0 0 .393.162h1.913c.169 0 .3-.054.392-.162a.533.533 0 0 0 .161-.391V17.65c0-1.32-.415-2.388-1.245-3.202-.83-.814-2.151-1.22-3.965-1.22-1.106 0-2.036.184-2.79.552-.752.353-1.313.776-1.682 1.267-.353.476-.538.906-.553 1.29 0 .153.046.276.138.368.108.092.23.139.369.139h1.798c.17 0 .284-.093.346-.277l.369-.369c.2-.2.453-.391.76-.575.308-.185.715-.277 1.222-.277.738 0 1.276.17 1.614.507.338.338.507.837.507 1.497v.484l-3.158.46c-1.476.23-2.636.668-3.481 1.313-.845.645-1.268 1.49-1.268 2.534 0 .645.184 1.236.553 1.774.384.537.9.967 1.545 1.29Zm5.025-2.58c-.538.553-1.23.83-2.074.83-.57 0-1.06-.13-1.476-.392-.4-.276-.6-.66-.6-1.151 0-.906.885-1.498 2.652-1.774l2.305-.368v.46c0 1.044-.269 1.843-.807 2.396Zm-15.656 2.65a.534.534 0 0 0 .392.16H44a.534.534 0 0 0 .392-.16.533.533 0 0 0 .161-.392V18.57c0-.722.208-1.29.623-1.705.415-.414.983-.621 1.706-.621h1.82c.17 0 .3-.054.393-.162a.533.533 0 0 0 .161-.391V14.01c0-.17-.054-.3-.161-.392a.488.488 0 0 0-.392-.161h-.968c-1.445 0-2.552.506-3.32 1.52v-.944a.561.561 0 0 0-.161-.415.562.562 0 0 0-.415-.161h-1.89a.534.534 0 0 0-.392.16.56.56 0 0 0-.162.415v10.849c0 .153.054.284.161.391ZM73.59 11.338a.533.533 0 0 0 .391.16h2.121a.534.534 0 0 0 .392-.16.502.502 0 0 0 .184-.392v-1.68a.561.561 0 0 0-.16-.415.562.562 0 0 0-.416-.161h-2.12a.533.533 0 0 0-.392.161.56.56 0 0 0-.162.415v1.681c0 .154.054.284.162.392Zm.092 13.934a.534.534 0 0 0 .392.162h1.959a.534.534 0 0 0 .392-.162.533.533 0 0 0 .161-.391V14.01a.533.533 0 0 0-.161-.391.534.534 0 0 0-.392-.161h-1.96a.534.534 0 0 0-.391.16.488.488 0 0 0-.162.393v10.87c0 .154.054.285.162.392Zm6.492.162a.534.534 0 0 1-.392-.162.533.533 0 0 1-.16-.391V14.01c0-.168.053-.299.16-.391a.534.534 0 0 1 .392-.161h1.914c.169 0 .3.053.392.16a.488.488 0 0 1 .161.393v.944c.938-1.152 2.22-1.728 3.85-1.728 1.414 0 2.536.461 3.365 1.382.83.922 1.245 2.188 1.245 3.8v6.473a.533.533 0 0 1-.161.391.488.488 0 0 1-.392.162h-2.075a.534.534 0 0 1-.392-.162.533.533 0 0 1-.161-.391v-6.334c0-.89-.223-1.582-.669-2.073-.43-.507-1.052-.76-1.867-.76-.784 0-1.414.253-1.89.76s-.715 1.198-.715 2.073v6.334a.533.533 0 0 1-.161.391.488.488 0 0 1-.392.162h-2.052Zm15.17-.23a5.08 5.08 0 0 0 2.166.46c.922 0 1.69-.154 2.306-.46.614-.323 1.091-.73 1.429-1.221v.898a.53.53 0 0 0 .161.391.533.533 0 0 0 .392.162h1.913c.169 0 .3-.054.392-.162a.53.53 0 0 0 .161-.391V17.65c0-1.32-.415-2.388-1.245-3.202-.83-.814-2.151-1.22-3.964-1.22-1.107 0-2.037.184-2.79.552-.753.353-1.314.776-1.683 1.267-.353.476-.538.906-.553 1.29 0 .153.046.276.138.368a.55.55 0 0 0 .37.139h1.797c.17 0 .285-.093.346-.277l.369-.369c.2-.2.453-.391.761-.575.307-.185.714-.277 1.222-.277.737 0 1.275.17 1.614.507.338.338.506.837.506 1.497v.484l-3.158.46c-1.475.23-2.635.668-3.48 1.313-.846.645-1.269 1.49-1.269 2.534 0 .645.185 1.236.553 1.774.385.537.9.967 1.545 1.29Zm5.025-2.58c-.539.552-1.23.829-2.075.829-.569 0-1.06-.13-1.476-.392-.4-.276-.599-.66-.599-1.151 0-.906.884-1.498 2.65-1.774l2.306-.368v.46c0 1.044-.268 1.843-.806 2.396Zm11.302 3.04c-1.553 0-2.744-.491-3.574-1.474-.83-.998-1.283-2.326-1.36-3.985l-.023-.76.023-.76c.062-1.628.508-2.94 1.338-3.938.844-1.014 2.043-1.52 3.596-1.52 1.475 0 2.65.506 3.527 1.52V9.634c0-.169.053-.3.161-.391a.534.534 0 0 1 .392-.162h2.006c.168 0 .299.054.391.162a.49.49 0 0 1 .162.391v15.248a.535.535 0 0 1-.162.391.487.487 0 0 1-.391.162h-1.868a.536.536 0 0 1-.392-.162.535.535 0 0 1-.161-.391v-.852c-.845 1.09-2.067 1.635-3.665 1.635Zm.875-2.488c.876 0 1.522-.276 1.937-.829.43-.568.668-1.267.715-2.096.014-.184.022-.476.022-.875 0-.415-.008-.714-.022-.898-.031-.768-.269-1.42-.715-1.958-.446-.538-1.091-.806-1.937-.806-1.644 0-2.52 1.013-2.627 3.04l-.024.691.024.691c.107 2.027.983 3.04 2.627 3.04Zm8.858 2.096a.537.537 0 0 0 .392.162h2.329a.49.49 0 0 0 .392-.162.53.53 0 0 0 .161-.391v-2.326a.53.53 0 0 0-.161-.392.534.534 0 0 0-.392-.161h-2.329a.537.537 0 0 0-.392.161.535.535 0 0 0-.161.392v2.326c0 .153.054.284.161.391Z" clip-rule="evenodd"/></svg>