<svg width="1697" height="423" fill="none" xmlns="http://www.w3.org/2000/svg"><g clip-path="url(#a)"><path d="M.15 210.73c0-31.46.11-62.91-.08-94.37C0 107.93 3.5 102.17 10.7 98.1c55.92-31.6 111.813-63.267 167.68-95 7-4 13.7-4.29 20.78-.28A104704.04 104704.04 0 0 0 367.7 98.3c7 4 10.31 9.75 10.27 18-.16 33.29 0 66.58-.17 99.87 0 3.94 1.34 5.89 4.63 7.72 16.45 9.1 32.72 18.53 49.16 27.66 9.65 5.36 14.36 13.12 14.21 24.34-.29 21.8-.2 43.61 0 65.41.08 10.41-4.49 17.76-13.36 22.78-19.4 11-38.85 21.91-58.17 33-9.17 5.28-18.08 5.73-27.39.36-16.6-9.57-33.35-18.82-49.88-28.44-3.3-1.91-5.79-2-9.13-.06-29.76 17-59.67 33.77-89.4 50.83-6.62 3.8-12.42 3.62-19-.14-31.77-18.19-63.69-36.1-95.55-54.12-23.75-13.44-47.4-27.07-71.29-40.25C4 320.52-.12 314.23 0 304.1c.39-31.1.15-62.25.15-93.37Zm206.69 163.52c.939-.332 1.86-.713 2.76-1.14 20.87-11.79 41.69-23.65 62.61-35.32 2.68-1.5 2.53-3.53 2.53-5.86 0-19.14.12-38.28-.05-57.42-.1-10.41 4.47-17.65 13.45-22.65 16.86-9.4 33.55-19.11 50.43-28.46 3.11-1.72 4.06-3.7 4-7.09-.13-22.47-.05-44.94-.09-67.41 0-1.24.55-2.66-1.09-4.11-37.29 22.71-59.57 55.46-66.37 98.82a31.564 31.564 0 0 1-.33-5.52c0-16.81-.07-33.62.06-50.43 0-3.75-.58-4.83-4.29-2.7A5217.241 5217.241 0 0 1 211 218.64c-3.2 1.79-4.23 3.84-4.22 7.45.12 47.6.147 95.2.08 142.8l-.02 5.36Z" fill="#6283FE"/><path d="M1567.5 196.15v-65.31c0-7.72 2.36-10 10.19-10s15.65-.06 23.47 0c6.13.06 8.79 2.73 8.79 8.88v200.12c0 6.25-2.54 8.87-8.68 8.93-7.65.07-15.31.08-23 0-6.5-.07-8.84-2.58-8.9-9.26v-7.85c-1.84-.11-2.23 1.21-2.93 2a54.589 54.589 0 0 1-29.56 16.53 82.428 82.428 0 0 1-35.68-.16c-21.9-5-35.9-19.05-42.85-39.85-8.51-25.256-9-52.525-1.4-78.07 9-31.28 33.74-47.74 66.3-45.88 16.83.89 31.43 6.49 44.25 19.92Zm-72.1 63.33c.46 8.69.44 17.83 3.51 26.66 4.6 13.23 13.46 21 27.58 22.32 15.3 1.41 28.72-2.22 35.39-17.36 8.87-20.15 8.89-41.3 1.6-61.78-5.23-14.7-17.13-20.51-34.5-19.91-14.34.5-24.56 7.65-29.49 20.63-3.55 9.36-3.79 19.19-4.09 29.44ZM1377.76 320.27c-24.59 25.09-64.27 29-90.38 9.35-25.89-19.46-24.75-53.48 2.44-71 15.34-9.9 32.71-13.53 50.45-15.94 10.72-1.46 21.41-3.09 32.14-4.45 3-.38 4.44-1.43 4-4.65-.29-2.3 0-4.66-.21-7-1-11.81-7.28-18.78-18.88-21.28-17.4-3.75-31 2.55-41.8 15.88-1.77 2.19-3.45 3.27-6.19 3.23-7.16-.09-14.32 0-21.48 0-6.75-.07-9.47-3.46-7.89-9.93 2.09-8.57 7.06-15.36 13.74-20.88 17-14 37-18 58.41-17.37 7.83.103 15.63 1.025 23.27 2.75 27.18 6.65 43.19 26.58 43.4 54.64.23 32.11.07 64.22 0 96.33 0 6.3-2.5 8.79-8.76 8.85-7.66.08-15.31.06-23 0-7 0-9.3-2.39-9.35-9.24.07-2.94.09-5.83.09-9.29Zm-.87-49.07c-.07-.829-.07-1.661 0-2.49.7-4.44-.63-5.64-5.34-4.67-9.28 1.91-18.74 2.94-28.09 4.51-9 1.52-18 3.47-25.74 8.81-12.29 8.52-11.27 24.62 2.22 31.08 13 6.24 26.26 5.69 38.73-1.59 13.52-7.85 17.62-20.96 18.22-35.65ZM790.56 320c-2.17 2.36-3.62 4.07-5.21 5.65-23.09 23-70.73 21.64-92.48-2.58-17.44-19.42-14.51-47.08 6.72-62.38 14.15-10.19 30.47-14.55 47.39-17.09 12.667-1.9 25.334-3.683 38-5.35 3.19-.42 4.79-1.49 4.29-5-.41-2.95-.23-6-.67-8.93-1.74-11.72-9.41-18.11-22.25-19.72-16-2-28.19 4.48-37.91 16.45a8 8 0 0 1-7.16 3.37c-6.66-.14-13.32 0-20 0-7.76 0-10.61-3.73-8.29-11.24 3-9.58 9.13-16.84 17.23-22.57 16.51-11.69 35.2-15.05 55-14.37 11.54.4 23 1.66 33.67 6.24 20.64 8.82 31.59 25.21 32.26 47 1 33.9.38 67.86.35 101.79 0 4.73-2.68 7.42-7.47 7.5-8.666.16-17.333.16-26 0-5-.1-7.4-2.85-7.51-8-.02-3.32.04-6.58.04-10.77Zm-40.21-7.55c12.34 0 22.92-4.11 30.69-13.9s8.81-21.25 8.55-33.09c-.06-3.12-2.15-1.75-3.53-1.55-10 1.52-20.06 3-30.07 4.7-8.06 1.34-16 3.22-23.19 7.3-6.65 3.78-11.06 9.05-10.59 17.22.47 8.17 5.22 13.34 12.57 16.39a39.368 39.368 0 0 0 15.57 2.91v.02ZM1124.56 199c16-18 35.5-24 57.75-22.6 30.23 2 51.2 21.37 56 51.47.93 5.918 1.39 11.9 1.37 17.89v82.88c0 8-2.11 10.11-10 10.13-7.89.02-16 0-24 0-6.87 0-9.31-2.47-9.32-9.3v-82.39c0-10.05-1.85-19.6-8.86-27.34-10.2-11.25-23.29-12.32-36.81-8.84-13.13 3.38-20.53 12.87-23.31 26a49.944 49.944 0 0 0-1 10.42c.04 27.12.04 54.247 0 81.38 0 7.9-2.16 10.06-10 10.08-7.84.02-16 .05-24 0-6.54-.05-9-2.54-9-9.13v-141.3c0-6.53 2.49-9 9.07-9.09 7.83-.08 15.66-.1 23.49 0 6 .08 8.42 2.63 8.52 8.57.15 3.26.1 6.56.1 11.17ZM929 273v55.43c0 8.3-2 10.3-10.31 10.32h-21c-7.57 0-9.84-2.3-9.84-9.84 0-37.11-.1-74.22.12-111.34 0-4.74-1.4-5.86-5.81-5.6-6.14.35-12.32.16-18.48.07s-8.7-2.75-8.77-9c-.06-5.15-.1-10.32 0-15.47.1-5.55 2.75-8.27 8.33-8.38 6.82-.14 13.66-.2 20.48 0 3.27.11 4.29-.89 4.18-4.17-.31-10-.2-20 2.85-29.67 6.55-20.73 22.37-29.57 42.5-32.64 12.74-2 25.6-1 38.41-1 4.49 0 7 2.86 7.11 7.37.14 5.82.14 11.643 0 17.47-.12 5.15-2.9 7.82-8.24 7.92-6.66.12-13.33 0-20 0-13.92.09-20 5.72-21.36 19.57-1.41 15-1.41 15 13.54 15 8 0 16-.06 24 0 6.48.07 8.92 2.63 9 9.17v14c0 7.22-2.38 9.67-9.49 9.7-10.5 0-21 .21-31.48-.09-4.38-.12-6 .84-5.87 5.64.28 18.61.13 37.09.13 55.54ZM605.11 198.59c11.5-13.89 26.42-19.13 43.49-19.38 4.66-.07 9.33-.14 14 0 5.08.18 7.63 2.76 7.73 7.85.133 6.98.133 13.98 0 21-.1 5.67-2.7 8.22-8.36 8.29-7.82.1-15.65 0-23.47 0-20.92.17-32.06 11.36-32.08 32.19v79.87c0 8.17-2.16 10.32-10.36 10.34-7.83 0-15.65.05-23.48 0-6.7-.05-9.15-2.4-9.15-8.93V188.05c0-6.19 2.59-8.77 8.8-8.85 7.83-.09 15.65-.1 23.48 0 6.12.09 8.73 2.82 8.85 8.92.06 3.16.05 6.32.09 9.48-.01.15.11.28.46.99ZM1000.5 258.71v-69.89c0-7.3 2.23-9.58 9.49-9.62 7.83 0 15.66-.08 23.48 0 6.15.08 8.76 2.73 8.77 8.94V329.9c0 6.17-2.63 8.78-8.82 8.84-8.15.08-16.31.1-24.47 0-5.92-.08-8.43-2.68-8.44-8.65-.03-23.8-.04-47.593-.01-71.38ZM1673.25 338.76c-5.15 0-10.31.11-15.45 0-5.31-.15-7.86-2.78-7.9-8.1-.07-9.8-.07-19.597 0-29.39 0-5.28 2.62-8 7.93-8.1 10.3-.147 20.6-.147 30.9 0 5.25.09 8.09 3.27 8.12 8.66.07 9.46.07 18.923 0 28.39 0 5.65-2.9 8.44-8.66 8.55-4.97.07-9.96 0-14.94-.01ZM1021.48 115.69c4.49 0 9-.07 13.48 0 5.69.1 8.37 2.63 8.47 8.16.12 7 .1 14 0 21-.07 5.11-2.87 8.07-8 8.16-9.49.167-18.98.167-28.47 0-4.95-.08-7.56-2.87-7.64-7.93-.12-7.15-.14-14.31 0-21.47.11-5.21 2.89-7.8 8.21-7.9 4.62-.09 9.28-.02 13.95-.02Z" fill="#2F2F3C"/></g><defs><clipPath id="a"><path fill="#fff" d="M0 0h1696.92v422.56H0z"/></clipPath></defs></svg>