<svg xmlns="http://www.w3.org/2000/svg" width="133" height="34" fill="none"><path fill="#000" fill-rule="evenodd" d="M28.089 7.512 15.431.186a1.375 1.375 0 0 0-1.382 0L1.391 7.512l-.626.363a1.386 1.386 0 0 0-.069.037l-.005.004A1.39 1.39 0 0 0 0 9.116V24.57c0 .494.264.952.69 1.2l12.66 7.328.656.377.041.025a1.38 1.38 0 0 0 1.384-.002l.693-.402 6.674-3.863 4.366 2.528a1.84 1.84 0 0 0 1.847 0l4.827-2.795c.571-.331.924-.942.924-1.603v-5.587c0-.663-.351-1.275-.924-1.604l-4.363-2.526V9.094a1.39 1.39 0 0 0-.691-1.18l-.695-.402Zm-1.387 10.133v-6.12a10.615 10.615 0 0 0-5.287 9.18v-6.123l-5.291 3.062v12.243l5.289-3.06v-5.052c0-.66.353-1.272.924-1.603l4.365-2.527Zm0-6.123v.002l-.011.004.01-.006Zm43.144 15.502a.566.566 0 0 1-.416-.171.567.567 0 0 1-.172-.416v-9.52h-1.982a.566.566 0 0 1-.416-.171.566.566 0 0 1-.171-.416v-1.444c0-.163.057-.302.171-.416a.566.566 0 0 1 .416-.171h1.982v-.98c0-1.484.4-2.585 1.2-3.303.799-.734 2.006-1.101 3.621-1.101h1.689c.163 0 .302.057.416.171a.567.567 0 0 1 .171.416v1.444a.567.567 0 0 1-.171.416.567.567 0 0 1-.416.171h-1.566c-.637 0-1.085.155-1.346.465-.261.31-.392.792-.392 1.444v.857h3.06c.162 0 .301.057.415.171a.567.567 0 0 1 .171.416v1.444a.566.566 0 0 1-.17.416.566.566 0 0 1-.417.171h-3.059v9.52a.566.566 0 0 1-.171.416.518.518 0 0 1-.416.171h-2.031Zm-14.448-.244a5.394 5.394 0 0 0 2.3.489c.98 0 1.795-.163 2.448-.49.652-.342 1.158-.774 1.517-1.296v.954c0 .163.057.302.171.416a.566.566 0 0 0 .416.171h2.031c.18 0 .319-.057.416-.171a.566.566 0 0 0 .172-.416v-7.684c0-1.403-.44-2.537-1.322-3.402-.88-.865-2.284-1.297-4.209-1.297-1.174 0-2.161.196-2.96.587-.8.376-1.396.824-1.787 1.346-.376.506-.571.963-.588 1.37a.53.53 0 0 0 .147.392.584.584 0 0 0 .392.147h1.909c.18 0 .301-.098.367-.294l.391-.391c.212-.212.481-.416.808-.612.326-.196.758-.294 1.297-.294.783 0 1.354.18 1.713.539.359.359.538.89.538 1.59v.515l-3.352.489c-1.567.245-2.798.71-3.696 1.395-.897.685-1.346 1.582-1.346 2.692 0 .685.196 1.313.588 1.884.408.571.954 1.028 1.64 1.37Zm5.335-2.741c-.57.587-1.305.88-2.202.88-.604 0-1.126-.138-1.566-.415-.425-.294-.637-.702-.637-1.224 0-.963.938-1.59 2.814-1.884l2.447-.392v.49c0 1.109-.285 1.957-.856 2.545Zm-16.62 2.814a.566.566 0 0 0 .417.171h2.178a.567.567 0 0 0 .416-.171.566.566 0 0 0 .171-.416v-6.705c0-.767.22-1.37.66-1.811.441-.44 1.045-.661 1.812-.661H51.7c.18 0 .318-.057.416-.171a.566.566 0 0 0 .171-.416v-1.787a.518.518 0 0 0-.171-.416.518.518 0 0 0-.416-.171h-1.028c-1.533 0-2.708.538-3.524 1.615v-1.003a.597.597 0 0 0-.171-.441.596.596 0 0 0-.44-.171H44.53a.566.566 0 0 0-.416.171.596.596 0 0 0-.171.44v11.527a.57.57 0 0 0 .17.416Zm34.005-14.806a.566.566 0 0 0 .416.172h2.251a.566.566 0 0 0 .416-.172.533.533 0 0 0 .196-.416V9.845a.597.597 0 0 0-.171-.44.597.597 0 0 0-.44-.172h-2.252a.566.566 0 0 0-.416.171.596.596 0 0 0-.171.44v1.787c0 .163.057.302.171.416Zm.098 14.806a.567.567 0 0 0 .416.171h2.08a.567.567 0 0 0 .416-.171.567.567 0 0 0 .171-.416v-11.55a.567.567 0 0 0-.171-.417.566.566 0 0 0-.416-.171h-2.08a.567.567 0 0 0-.416.171.519.519 0 0 0-.171.416v11.551a.57.57 0 0 0 .17.416Zm6.892.171a.567.567 0 0 1-.416-.171.567.567 0 0 1-.171-.416v-11.55c0-.18.057-.32.171-.417a.567.567 0 0 1 .416-.171h2.031c.18 0 .318.057.416.171a.519.519 0 0 1 .172.416v1.003c.995-1.223 2.357-1.835 4.086-1.835 1.501 0 2.692.49 3.573 1.468.881.98 1.322 2.325 1.322 4.038v6.877a.567.567 0 0 1-.172.416.518.518 0 0 1-.416.171h-2.202a.567.567 0 0 1-.416-.171.567.567 0 0 1-.171-.416v-6.73c0-.946-.237-1.68-.71-2.202-.457-.539-1.118-.808-1.982-.808-.832 0-1.501.27-2.007.808-.506.538-.759 1.272-.759 2.202v6.73a.567.567 0 0 1-.17.416.518.518 0 0 1-.417.171h-2.178Zm16.102-.244a5.396 5.396 0 0 0 2.301.489c.979 0 1.794-.163 2.447-.49.653-.342 1.158-.774 1.517-1.296v.954c0 .163.057.302.172.416a.562.562 0 0 0 .415.171h2.031a.52.52 0 0 0 .417-.171.566.566 0 0 0 .17-.416v-7.684c0-1.403-.44-2.537-1.321-3.402-.881-.865-2.284-1.297-4.208-1.297-1.175 0-2.162.196-2.962.587-.799.376-1.395.824-1.786 1.346-.375.506-.571.963-.588 1.37a.53.53 0 0 0 .147.392.584.584 0 0 0 .392.147h1.909c.179 0 .301-.098.367-.294l.391-.391c.212-.212.481-.416.808-.612.326-.196.758-.294 1.297-.294.783 0 1.353.18 1.713.539.359.359.538.89.538 1.59v.515l-3.352.489c-1.567.245-2.798.71-3.696 1.395-.897.685-1.346 1.582-1.346 2.692 0 .685.196 1.313.588 1.884.407.571.954 1.028 1.639 1.37Zm5.335-2.741c-.571.587-1.305.88-2.202.88-.604 0-1.126-.138-1.567-.415-.424-.294-.636-.702-.636-1.224 0-.963.938-1.59 2.814-1.884l2.448-.392v.49c0 1.109-.286 1.957-.857 2.545Zm11.998 3.23c-1.648 0-2.913-.522-3.794-1.566-.881-1.06-1.362-2.472-1.443-4.234l-.025-.808.025-.807c.065-1.73.538-3.124 1.419-4.185.897-1.077 2.17-1.615 3.818-1.615 1.565 0 2.813.538 3.744 1.615v-5.433c0-.18.057-.318.171-.416a.566.566 0 0 1 .416-.17h2.129c.179 0 .318.056.416.17a.52.52 0 0 1 .172.416v16.201a.568.568 0 0 1-.172.416.519.519 0 0 1-.416.171h-1.982a.57.57 0 0 1-.417-.171.57.57 0 0 1-.17-.416v-.905c-.898 1.158-2.194 1.737-3.891 1.737Zm.929-2.643c.93 0 1.616-.294 2.056-.88.457-.605.709-1.347.759-2.228.015-.196.024-.506.024-.93 0-.44-.009-.759-.024-.954-.033-.816-.285-1.51-.759-2.08-.474-.571-1.158-.857-2.056-.857-1.745 0-2.676 1.077-2.789 3.23l-.025.735.025.734c.113 2.153 1.044 3.23 2.789 3.23Zm9.404 2.227a.566.566 0 0 0 .415.171h2.472a.519.519 0 0 0 .416-.171.564.564 0 0 0 .172-.416v-2.472a.564.564 0 0 0-.172-.416.565.565 0 0 0-.416-.171h-2.472a.566.566 0 0 0-.415.171.568.568 0 0 0-.172.416v2.472c0 .163.058.302.172.416Z" clip-rule="evenodd"/></svg>