<svg xmlns="http://www.w3.org/2000/svg" width="467" height="262" fill="none"><path fill="#000" d="m133.835 79.113 18.09-10.997.825 46.426s1.833 7.771 4.894 10.062a73.114 73.114 0 0 1 5.7 4.692l-8.615 12.115s-9.659-6.635-12.06-12.83c-2.401-6.194-2.071-46.554-2.071-46.554s.44-6.231-6.763-2.914Z"/><path fill="#000" d="m151.008 121.049.733-62.298h.367l.733 62.298h-1.833Zm3.041 19.758c6.635-7.332 12.592-16.019 13.985-25.99a30.025 30.025 0 0 1-1.338 7.441 55.518 55.518 0 0 1-11.272 19.795l-1.356-1.246h-.019Zm31.343-76.777a14.811 14.811 0 0 1-8.725 4.105c-5.132.348-17.961 0-17.961 0s-3.831 1.612-3.831 4.398V83.64h13.123a128.979 128.979 0 0 1 17.394-19.61Z"/><path fill="#000" d="M163.233 99.66c-.605-11.272 6.25-20.693 12.445-29.326.807-1.154 2.456.33 1.338 1.246-7.515 6.452-12.83 17.45-10.264 27.328a1.834 1.834 0 1 1-3.519.825v-.074Z"/><path stroke="#000" stroke-linecap="round" stroke-miterlimit="10" stroke-width=".916" d="m155.277 74.751.349 48.369"/><path fill="#000" d="m174.321 91.045 19.19-23.827s-1.338 4.93 0 6.415a6.25 6.25 0 0 0 3.666 1.686h22.415a20.59 20.59 0 0 0 5.92-2.676 15.094 15.094 0 0 0 3.666-3.519l-7.936 9.97v35.448s1.833 7.166 4.582 9.952a16.242 16.242 0 0 0 5.499 3.556 59.525 59.525 0 0 0 5.7-5.077l-13.912 16.624s-9.384-6.415-11.217-11.364a44.246 44.246 0 0 1-2.254-10.502V87.379h-30.883l-4.436 3.666Z"/><path fill="#000" d="M168.914 106.954 187.701 95.7l.751 19.703s5.022 8.651 9.586 11.162c4.564 2.511 13.086-9.402 13.086-9.402l-14.864 25.128s-9.402-4.784-13.068-10.282a44.682 44.682 0 0 1-3.538-8.559s-2.822 3.519-3.885 4.508c-.9.885-1.925 1.632-3.043 2.218l.66-1.081a18.322 18.322 0 0 0 2.823-9.824V107.98a9.398 9.398 0 0 0-7.295-1.026Zm114.938-69.263s-11.859-11.418-14.26-15.414c-2.401-3.995-4.802-8.742-4.802-8.742a14.017 14.017 0 0 1-4.875 8.082c-4.142 3.281-29.069 20.583-29.069 20.583s9.824-2.914 11.346 0c1.521 2.914 1.173 29.82 1.173 29.82h-6.269l-10.63 14.847 4.38-3.116h12.519v48.753l-4.069 18.988 1.228 2.255s8.669-17.522 11.785-17.816c3.116-.293 4.197 7.937 4.197 7.937V83.769l49.67.293 4.949-11.143-55.572-.294V30.47l2.474-.146 15.213 16.495a5.827 5.827 0 0 0 3.922.22c2.841-.513 10.191-9.476 10.191-9.476l-3.501.128Z"/><path fill="#000" d="M282.514 96.746v35.758l-4.014 18.988 1.247 2.255 14.754-23.277.385-44.776V30.562l2.474-.147 15.195 16.496a5.9 5.9 0 0 0 3.94.22c2.841-.514 10.172-9.476 10.172-9.476h-3.555s-11.859-11.419-14.26-15.414c-2.401-3.996-4.802-8.743-4.802-8.743a14.023 14.023 0 0 1-4.875 8.083c-4.179 3.317-29.179 20.62-29.179 20.62s9.824-2.915 11.345 0c1.522 2.913 1.173 42.888 1.173 42.888m84.328 52.418-13.453-3.83-.605-.183c-5.828-1.723-7.881-4.418-7.9-10.484V99.183c.037-.641.037-1.284 0-1.925a4.637 4.637 0 0 0-6.818-3.885 4.36 4.36 0 0 1-2.108.476 87.099 87.099 0 0 1 9.476-6.433c3.244-2.144 6.543-4.27 9.769-6.47s6.397-4.49 9.586-6.745c3.189-2.254 6.36-4.527 9.659-6.891 5.169 5.883 10.319 11.748 18.915 13.141a59.835 59.835 0 0 0-12.738 24.065c-.843-3.39.238-6.58.751-9.915-8.944-2.42-14.443-8.688-18.53-16.68v39.719c-.016 1.286.107 2.57.367 3.83a5.09 5.09 0 0 0 2.49 3.689 5.102 5.102 0 0 0 4.438.325 25.477 25.477 0 0 0 4.014-1.961c3.519-1.925 7.001-3.904 10.539-5.774a10.59 10.59 0 0 1 2.676-.659l.274.44c-.256.329-.439.788-.769.971-7.863 4.38-13.692 10.997-19.153 17.833-.367.514-.77 1.008-.88 1.173Zm-58.467-42.155 14.002-9.439a37.723 37.723 0 0 0 4.546 3.94 38.74 38.74 0 0 0 5.828 2.567 6.01 6.01 0 0 1-1.118.458c-2.712.458-3.409 1.301-3.409 4.014v25.806a11.02 11.02 0 0 0 .495 3.373 3.847 3.847 0 0 0 5.224 2.712 43.314 43.314 0 0 0 4.6-2.126c.485-.271.987-.51 1.503-.715a3.878 3.878 0 0 1 1.118 0c-.198.34-.445.649-.733.917-2.951 1.998-6.03 3.849-8.889 6.012a39.856 39.856 0 0 0-4.344 4.637c-2.878-1.595-5.865-3.189-8.78-4.912a7.339 7.339 0 0 1-3.464-6.818v-26.76a4.364 4.364 0 0 0-1.081-3.39 3.667 3.667 0 0 0-4.197-.477c-.385.183-.807.33-1.21.476l-.091-.275Zm14.112-30.168a44.87 44.87 0 0 0 6.214 9.567 1.104 1.104 0 0 1 0 .99 23.706 23.706 0 0 1-6.104 6.983 1.115 1.115 0 0 1-1.099 0 16.335 16.335 0 0 1-2.328-2.034 25.062 25.062 0 0 1-4.38-6.782l7.697-8.724Zm96.317 22.122c-5.498.935-13.233 4.985-10.704 11.529a15.946 15.946 0 0 0 3.501 5.168c9.348 9.403 22.306 15.084 31.397 24.982 6.213 6.928 7.826 16.495 8.302 25.458a32.486 32.486 0 0 1-.715 10.539 5.9 5.9 0 0 1-2.327 3.39 2.069 2.069 0 0 1-2.071.237 2.074 2.074 0 0 1-1.228-1.685 2.051 2.051 0 0 1 1.833-2.217c-.385 0-.22 0-.257.128 4.949-2.511 2.364-18.585 1.228-23.387-1.998-8.779-8.651-15.194-15.909-20.161-7.258-4.967-14.974-9.733-21.664-16.001-3.373-3.226-6.324-8.486-3.776-13.16a15.55 15.55 0 0 1 4.985-5.297 35.233 35.233 0 0 1 6.269-3.519 2.05 2.05 0 0 1 2.356.576 2.051 2.051 0 0 1-1.238 3.347l.018.073Z"/><path fill="#000" d="M449.375 206.129c8.431-3.244 13.838-12.005 15.762-20.583 2.09-8.926.147-18.328-3.17-26.778a82.356 82.356 0 0 0-35.301-40.799.916.916 0 1 1 .843-1.613c24.487 14.755 52.053 54.582 33.303 82.332a61.277 61.277 0 0 1-9.329 10.997 2.144 2.144 0 0 1-3.024-.11 2.162 2.162 0 0 1 .916-3.519v.073Z"/><path fill="#000" d="M404.727 96.214s-11.363 10.557-10.392 18.2c.972 7.643 30.554 25.513 30.554 25.513s10.722 6.323 8.926 18.676c-1.797 12.354-5.334 16.258-5.334 16.258s14.095-14.498 12.977-31.159c-1.119-16.66-32.02-34.127-32.02-34.127s-7.625-5.883-4.711-13.361ZM68.73 20.554h87.647s-1.1-18.108-6.763-20.16c-5.663-2.054 17.082 4.6 17.082 4.6s-4.435 27.914-25.146 29.105c-23.699 1.356-73.589.385-73.589.385s-16.605-1.301-13.325 6.378c3.281 7.68-6.58 9.33-6.58 9.33s-3.299-12.83 6.764-19.575a169.598 169.598 0 0 0 13.91-10.063Z"/><path fill="#000" d="M84.732 35.84v78.336s0 21.04 16.495 29.325a26.193 26.193 0 0 0 29.032-3.116l13.435-16.184s-21.224 20.07-31.561 5.499c-10.338-14.571-11.419-13.197-12.409-34.623-.99-21.425.202-71.315.202-71.315S98.258 6.625 105.13 3.307c6.873-3.317-14.37-1.356-18.328 20.161-3.96 21.518-2.071 12.372-2.071 12.372Z"/><path fill="#000" d="M100.33 2.96c18.164-12.519 17.027 21.663 17.174 31.707-.128 14.131-1.247 28.134-2.273 42.156-1.301 20.894-3.959 42.045-1.833 62.903 1.137 6.121 2.035 15.065 9.164 16.697a3.165 3.165 0 0 1 2.499 1.947 3.171 3.171 0 0 1-5.871 2.396c-3.831-6.616-6.965-13.196-7.716-20.784a138.837 138.837 0 0 1-.752-21.187c.807-21.096 2.823-42.046 3.648-63.142.586-13.838 1.136-28.06-1.283-41.697a20.512 20.512 0 0 0-3.373-8.87c-1.979-2.255-4.948-.825-6.836.842a1.969 1.969 0 0 1-1.46.566 1.959 1.959 0 0 1-1.869-2.178 1.96 1.96 0 0 1 .781-1.357Z"/><path fill="#000" d="M111.071 119.179s2.859-24.377 16.11-24.578c13.252-.202 3.464 13.031 3.464 13.031s-8.87-4.38-13.141 2.456a66.904 66.904 0 0 1-6.433 9.091Zm0-50.549 3.665-3.648 3.465 3.464-3.703 3.684-3.427-3.5ZM80.682 186.114l17.504-21.682s-1.228 4.509 0 5.847a5.82 5.82 0 0 0 3.354 1.558h20.436a19.309 19.309 0 0 0 5.498-2.456 13.888 13.888 0 0 0 3.41-3.208l-7.332 9.164v32.295s1.631 6.525 4.179 9.164a14.828 14.828 0 0 0 4.967 3.226 53.312 53.312 0 0 0 5.205-4.619l-12.683 15.158s-8.559-5.847-10.227-10.356a40.115 40.115 0 0 1-2.071-9.586v-27.84h-28.19l-4.05 3.335Z"/><path fill="#000" d="m75.751 200.612 17.137-10.264.679 17.981s4.582 7.899 8.742 10.19c4.161 2.291 11.95-8.596 11.95-8.596l-13.544 22.892s-8.633-4.362-11.95-9.421a40.13 40.13 0 0 1-3.226-7.807s-2.566 3.225-3.538 4.123a11.942 11.942 0 0 1-2.749 2.053l.605-.971a16.862 16.862 0 0 0 2.566-8.963V201.51a8.626 8.626 0 0 0-6.672-.898Zm95.877 20.198-17.541 11.803a46.49 46.49 0 0 0-5.681-4.985 52.065 52.065 0 0 0-7.332-3.299 15.878 15.878 0 0 1 1.668-.495c3.043-.495 4.106-1.723 4.106-4.747v-36.418c0-3.208-1.063-3.868-3.849-2.42-1.54.788-3.061 1.595-4.637 2.31a3.53 3.53 0 0 1-1.32 0c.257-.404.422-.953.806-1.173 1.632-1.008 3.355-1.833 5.004-2.86a40.325 40.325 0 0 0 11.675-10.758c2.291 1.594 4.582 3.042 6.672 4.71a6.028 6.028 0 0 1 2.218 5.114v5.37a71.79 71.79 0 0 0 19.318-15.029c2.786 1.649 5.736 2.969 7.753 5.498 2.016 2.529.861 6.104 1.411 9.329a71.347 71.347 0 0 0 19.336-15.121c2.383 1.833 4.839 3.354 7.093 5.224a5.751 5.751 0 0 1 1.833 4.692v37.61a14.09 14.09 0 0 0 .275 2.786c.07.684.313 1.34.706 1.905a4.058 4.058 0 0 0 3.533 1.729 4.045 4.045 0 0 0 1.938-.61c.531-.257 1.099-.458 1.649-.678l.257.385a4.222 4.222 0 0 1-.917.898 91.29 91.29 0 0 0-16.495 11.382 13.638 13.638 0 0 0-.971-1.412 40.907 40.907 0 0 0-4.748-5.003 3.924 3.924 0 0 1-1.832-3.483v-40.725c0-2.988-1.155-3.666-3.666-2.2a270.499 270.499 0 0 1-6.965 3.941 1.689 1.689 0 0 0-1.063 1.704v30.499c0 4.472 3.024 6.268 7.057 4.38a1.685 1.685 0 0 1 1.264 0 2.684 2.684 0 0 1-.586.807c-2.896 1.833-5.902 3.409-8.725 5.315-2.822 1.906-5.498 4.032-8.211 6.122a21.889 21.889 0 0 0-6.836-7.332c-.385-.238-.513-1.099-.513-1.686V182.43a9.754 9.754 0 0 0 0-1.026 1.834 1.834 0 0 0-3.116-1.595c-2.768 1.503-5.499 3.08-8.23 4.674a1.682 1.682 0 0 0-.604 1.192v31.158c0 4.289 2.95 5.92 6.891 4.05.367-.165.77-.256 1.155-.385l.22.312ZM75.53 145.755l-20.27 20.271v74.89l-4.93 9.366S32 255.78 18.657 243.17s0-23.423 0-23.423L.33 237.837s-3.886 13.911 15.029 21.664c18.915 7.753 36.418-8.358 36.418-8.358l14.553-26.649 2.254-68.842 6.947-9.897Z"/><path fill="#000" d="m57.699 156.569-16.734 17.595v11.895l-8.614 6.873 7.642 3.666-7.642 8.449 7.642 4.381.972 21.261-5.499 11.418s11.107-11.253 13.142-17.833a72.443 72.443 0 0 1 4.215-10.777v-44.575l4.876-12.353Zm12.169-12.738s-2.658 4.747-14.516 3.665c-11.859-1.081-15.763-9.989-27.951-6.048-12.188 3.941-21.023 11.107-19.905 15.121a15.607 15.607 0 0 0 3.08 6.085s-6.562-7.332 6.414-11.987c12.977-4.655 21.994 7.661 28.74 7.661 6.744 0 24.138-14.497 24.138-14.497ZM325.329 219.6c-10.814 0-18.219 5.224-24.267 12.83-9.036-3.391-13.38-9.494-13.398-18.768V177.39c0-1.045.11-2.108.183-3.464 9.036 0 15.836-4.271 21.041-11.419 6.14 5.279 11.987 10.997 21.06 7.662 0 .311 0 .458-.092.513-5.095 3.885-4.637 9.384-4.545 14.901.164 9.934 0 19.868 0 29.802l.018 4.215Zm-24.835-44.959v35.813c0 6.562 4.912 10.832 12.042 10.283 0-12.977 0-25.972-.092-38.967 0-.714-1.045-1.667-1.833-2.089-3.171-1.705-6.451-3.262-10.117-5.04Zm75.422 34.824 29.325-46.683 13.233 10.778c-3.006 1.191-3.097 4.453-3.079 7.807v22.526l6.91-1.265c-1.558 1.558-2.896 3.061-4.399 4.381-2.31 2.034-3.666 10.154-1.833 12.39.751.861 2.364.99 3.794 1.521l-10.447 11.125-9.989-10.593a10.465 10.465 0 0 0 2.456-2.346 5.79 5.79 0 0 0-.815-7.66 5.78 5.78 0 0 0-2.448-1.321 92.27 92.27 0 0 0-10.593-3.373c-4.234-.861-8.395-.348-11.456 3.538l-.659-.825Zm26.906-12.097c0-5.498.183-10.374-.11-15.249-.092-1.521-1.467-2.969-2.255-4.454-1.539.843-3.665 1.32-4.527 2.603-3.812 5.498-7.331 11.272-10.832 16.935-1.1 1.833-2.181 3.519-3.262 5.279 6.286-4.692 12.719-7.57 20.986-5.114Zm-160.265 28.116a11.37 11.37 0 0 1 1.118-3.941 509.288 509.288 0 0 1 13.362-16.734c1.668-2.016 3.776-3.665 5.627-5.498a15.585 15.585 0 0 0 4.838-12.317c-.22-4.124 0-8.266 0-12.83-9.036 10.319-17.705 9.164-24.908-2.712 8.23 2.236 12.353-3.501 17.027-8.926 5.26 7.166 12.665 10.062 21.298 10.648 0 7.9.366 15.635-.165 23.314-.275 3.904-3.868 6.232-7.332 7.881-4.417 2.145-8.962 3.996-13.471 5.92-7.46 3.189-13.82 7.625-17.485 15.158l.091.037Z"/><path fill="#000" d="M242.557 225.484a21.47 21.47 0 0 0 2.529-2.273c4.674-5.81 10.319-7.331 17.211-4.307 1.649.715 3.262 1.503 4.857 2.309 4.49 2.218 8.907 3.666 13.269-.623-3.06 4.326-5.791 9.018-10.722 10.997a19.99 19.99 0 0 1-9.347.55 33.033 33.033 0 0 1-7.332-2.694c-6.781-2.603-8.082-2.291-13.288 2.841l2.823-6.8Zm89.937 0a11.37 11.37 0 0 1 1.118-3.941 508.231 508.231 0 0 1 13.362-16.734c1.668-2.016 3.776-3.666 5.608-5.498a15.533 15.533 0 0 0 4.894-12.262c-.22-4.124 0-8.266 0-12.83-9.036 10.319-17.705 9.164-24.908-2.713 8.229 2.237 12.353-3.5 17.027-8.925 5.26 7.166 12.646 10.062 21.297 10.648 0 7.9.367 15.634-.165 23.314-.274 3.904-3.867 6.232-7.331 7.881-4.417 2.145-8.962 3.996-13.49 5.92-7.459 3.189-13.801 7.625-17.467 15.158l.055-.018Z"/><path fill="#000" d="M332.495 225.484a22.995 22.995 0 0 0 2.529-2.273c4.674-5.81 10.319-7.331 17.211-4.307 1.649.715 3.262 1.503 4.857 2.309 4.472 2.218 8.907 3.666 13.269-.623-3.061 4.326-5.791 9.018-10.722 10.997a19.99 19.99 0 0 1-9.347.55 33.033 33.033 0 0 1-7.332-2.694c-6.781-2.603-8.082-2.291-13.288 2.841l2.823-6.8Z"/></svg>