<svg width="20" height="20" fill="none" xmlns="http://www.w3.org/2000/svg"><path fill-rule="evenodd" clip-rule="evenodd" d="M5.806 2.66a3.568 3.568 0 0 0-3.564 3.564v8.385c0 1.965 1.6 3.564 3.564 3.564h8.385c1.965 0 3.564-1.599 3.564-3.564V6.224c0-1.965-1.599-3.564-3.564-3.564H5.806ZM.832 6.224A4.979 4.979 0 0 1 5.806 1.25h8.385a4.979 4.979 0 0 1 4.974 4.974v8.385a4.979 4.979 0 0 1-4.974 4.974H5.806A4.979 4.979 0 0 1 .832 14.61V6.224Zm13.665-.622a.327.327 0 0 0-.326.326c0 .18.147.326.326.326.18 0 .326-.147.326-.326a.327.327 0 0 0-.326-.326Zm-1.736.326a1.738 1.738 0 0 1 3.473 0 1.738 1.738 0 0 1-3.473 0ZM9.937 7.534a2.825 2.825 0 0 0-2.82 2.82 2.825 2.825 0 0 0 2.82 2.821 2.825 2.825 0 0 0 2.82-2.82 2.825 2.825 0 0 0-2.82-2.82Zm-4.23 2.82a4.235 4.235 0 0 1 4.23-4.23 4.235 4.235 0 0 1 4.23 4.23 4.235 4.235 0 0 1-4.23 4.232 4.235 4.235 0 0 1-4.23-4.232Z" fill="#FCFDFD"/></svg>