<svg width="20" height="20" fill="none" xmlns="http://www.w3.org/2000/svg"><path fill-rule="evenodd" clip-rule="evenodd" d="m19.71 4.023-2.762 12.701v.002c-.116.54-.379 1.055-.905 1.286-.518.227-1.07.08-1.53-.167a.633.633 0 0 1-.07-.043l-3.792-2.733-1.65 1.565-.001.002-.028.026c-.101.096-.252.24-.438.348-.23.133-.49.206-.806.206a.625.625 0 0 1-.624-.667l.285-4.144a.625.625 0 0 1 .242-.5l4.167-3.67-5.816 3.58a.625.625 0 0 1-.51.066l-4.166-1.268h-.002c-.275-.083-.542-.208-.746-.396-.215-.199-.383-.496-.346-.858.035-.338.235-.596.442-.775.213-.183.49-.334.806-.458l.008-.004L17.693 2.02c.539-.231 1.178-.203 1.635.227.456.43.554 1.095.383 1.777ZM8.623 12.697l-.19 2.754 1.735-1.645a.625.625 0 0 1 .795-.054l4.177 3.01c.291.15.398.107.402.105.003-.001.026-.011.061-.065.039-.06.086-.165.124-.34v-.002l2.766-12.713a.554.554 0 0 1 .005-.022c.108-.422-.013-.556-.027-.57-.01-.01-.09-.073-.29.015a.653.653 0 0 1-.032.013L1.912 9.291a2.348 2.348 0 0 0-.261.12l.013.004.003.001 3.9 1.187 9.415-5.796c.17-.1.347-.169.519-.204.16-.032.364-.044.563.022.103.035.235.101.344.228.118.137.18.314.174.498-.012.318-.22.532-.34.636l-.001.002-7.62 6.708Z" fill="#FCFDFD"/></svg>