<svg width="20" height="20" fill="none" xmlns="http://www.w3.org/2000/svg"><path fill-rule="evenodd" clip-rule="evenodd" d="M4.24 2.742c3.773-.99 7.743-.99 11.516 0 .724.189 1.38.576 1.895 1.117a3.953 3.953 0 0 1 1.012 1.947v.001c.45 2.267.45 4.598 0 6.865v.001a3.953 3.953 0 0 1-1.012 1.947 4.014 4.014 0 0 1-1.895 1.118h-.003l-.081.021v2.392a.843.843 0 0 1-1.39.647l-2.689-2.239a.501.501 0 0 0-.347-.112h-.002a22.705 22.705 0 0 1-7-.71A4.013 4.013 0 0 1 2.35 14.62a3.953 3.953 0 0 1-1.012-1.947 17.642 17.642 0 0 1 0-6.866 3.953 3.953 0 0 1 1.01-1.947A4.013 4.013 0 0 1 4.24 2.742Zm.342 1.311a21.37 21.37 0 0 1 10.832 0 2.66 2.66 0 0 1 1.257.741c.34.357.57.8.665 1.279a16.28 16.28 0 0 1 0 6.334 2.596 2.596 0 0 1-.665 1.278 2.661 2.661 0 0 1-1.255.74l-.273.07a1.088 1.088 0 0 0-.824 1.056v1.516l-1.866-1.554a1.852 1.852 0 0 0-1.284-.42 21.358 21.358 0 0 1-6.583-.667 2.66 2.66 0 0 1-1.257-.74c-.34-.358-.57-.8-.665-1.279a16.283 16.283 0 0 1 0-6.335c.095-.478.325-.92.663-1.278a2.661 2.661 0 0 1 1.255-.74M6.888 6.26v1.1H8.25c.614 0 1.132.498 1.132 1.128v4.014h1.367V8.49c0-.626.51-1.128 1.131-1.128h1.362v-1.1H6.888Zm6.583-1.355a1.125 1.125 0 0 1 1.124 1.123v1.564c0 .63-.514 1.124-1.128 1.124h-1.366v4.018c0 .63-.514 1.124-1.127 1.124H9.157a1.13 1.13 0 0 1-1.128-1.123V8.716H6.67a1.13 1.13 0 0 1-1.045-.688 1.12 1.12 0 0 1-.088-.436V6.03c0-.626.506-1.123 1.127-1.123h6.808Z" fill="#FCFDFD"/></svg>